<mxfile host="app.diagrams.net" agent="Mozilla/5.0 (Windows NT 10.0; Win64; x64; rv:138.0) Gecko/20100101 Firefox/138.0" version="27.0.9">
  <diagram name="Página-1" id="dRH5zw2mJTn5rTZuvIXg">
    <mxGraphModel dx="2200" dy="1156" grid="1" gridSize="10" guides="1" tooltips="1" connect="1" arrows="1" fold="1" page="1" pageScale="1" pageWidth="827" pageHeight="1169" math="0" shadow="0">
      <root>
        <mxCell id="0" />
        <mxCell id="1" parent="0" />
        <mxCell id="J8siXgxXGdqORLvkZh0o-66" value="" style="shape=umlLifeline;perimeter=lifelinePerimeter;whiteSpace=wrap;html=1;container=1;dropTarget=0;collapsible=0;recursiveResize=0;outlineConnect=0;portConstraint=eastwest;newEdgeStyle={&quot;curved&quot;:0,&quot;rounded&quot;:0};participant=umlActor;" vertex="1" parent="1">
          <mxGeometry x="114" y="320" width="20" height="530" as="geometry" />
        </mxCell>
        <mxCell id="J8siXgxXGdqORLvkZh0o-71" value="" style="html=1;points=[[0,0,0,0,5],[0,1,0,0,-5],[1,0,0,0,5],[1,1,0,0,-5]];perimeter=orthogonalPerimeter;outlineConnect=0;targetShapes=umlLifeline;portConstraint=eastwest;newEdgeStyle={&quot;curved&quot;:0,&quot;rounded&quot;:0};" vertex="1" parent="J8siXgxXGdqORLvkZh0o-66">
          <mxGeometry x="5" y="60" width="10" height="450" as="geometry" />
        </mxCell>
        <mxCell id="J8siXgxXGdqORLvkZh0o-67" value="Botón de ascensor" style="shape=umlLifeline;perimeter=lifelinePerimeter;whiteSpace=wrap;html=1;container=1;dropTarget=0;collapsible=0;recursiveResize=0;outlineConnect=0;portConstraint=eastwest;newEdgeStyle={&quot;curved&quot;:0,&quot;rounded&quot;:0};" vertex="1" parent="1">
          <mxGeometry x="184" y="320" width="100" height="530" as="geometry" />
        </mxCell>
        <mxCell id="J8siXgxXGdqORLvkZh0o-69" value="" style="html=1;points=[[0,0,0,0,5],[0,1,0,0,-5],[1,0,0,0,5],[1,1,0,0,-5]];perimeter=orthogonalPerimeter;outlineConnect=0;targetShapes=umlLifeline;portConstraint=eastwest;newEdgeStyle={&quot;curved&quot;:0,&quot;rounded&quot;:0};" vertex="1" parent="J8siXgxXGdqORLvkZh0o-67">
          <mxGeometry x="45" y="60" width="10" height="70" as="geometry" />
        </mxCell>
        <mxCell id="J8siXgxXGdqORLvkZh0o-101" value="" style="html=1;points=[[0,0,0,0,5],[0,1,0,0,-5],[1,0,0,0,5],[1,1,0,0,-5]];perimeter=orthogonalPerimeter;outlineConnect=0;targetShapes=umlLifeline;portConstraint=eastwest;newEdgeStyle={&quot;curved&quot;:0,&quot;rounded&quot;:0};" vertex="1" parent="J8siXgxXGdqORLvkZh0o-67">
          <mxGeometry x="45" y="320" width="10" height="80" as="geometry" />
        </mxCell>
        <mxCell id="J8siXgxXGdqORLvkZh0o-70" value="pressBtn()" style="html=1;verticalAlign=bottom;startArrow=oval;endArrow=block;startSize=8;curved=0;rounded=0;entryX=0;entryY=0;entryDx=0;entryDy=5;exitX=1;exitY=0;exitDx=0;exitDy=5;exitPerimeter=0;" edge="1" target="J8siXgxXGdqORLvkZh0o-69" parent="1" source="J8siXgxXGdqORLvkZh0o-71">
          <mxGeometry relative="1" as="geometry">
            <mxPoint x="159" y="385" as="sourcePoint" />
          </mxGeometry>
        </mxCell>
        <mxCell id="J8siXgxXGdqORLvkZh0o-80" value="" style="html=1;verticalAlign=bottom;startArrow=oval;startFill=1;endArrow=block;startSize=8;curved=0;rounded=0;" edge="1" parent="1">
          <mxGeometry width="60" relative="1" as="geometry">
            <mxPoint x="229" y="440" as="sourcePoint" />
            <mxPoint x="124.24358974358972" y="440" as="targetPoint" />
          </mxGeometry>
        </mxCell>
        <mxCell id="J8siXgxXGdqORLvkZh0o-81" value="blinkLight()" style="edgeLabel;html=1;align=center;verticalAlign=middle;resizable=0;points=[];" vertex="1" connectable="0" parent="J8siXgxXGdqORLvkZh0o-80">
          <mxGeometry x="0.0554" relative="1" as="geometry">
            <mxPoint as="offset" />
          </mxGeometry>
        </mxCell>
        <mxCell id="J8siXgxXGdqORLvkZh0o-82" value="Controlador del ascensor" style="shape=umlLifeline;perimeter=lifelinePerimeter;whiteSpace=wrap;html=1;container=1;dropTarget=0;collapsible=0;recursiveResize=0;outlineConnect=0;portConstraint=eastwest;newEdgeStyle={&quot;curved&quot;:0,&quot;rounded&quot;:0};" vertex="1" parent="1">
          <mxGeometry x="294" y="320" width="100" height="530" as="geometry" />
        </mxCell>
        <mxCell id="J8siXgxXGdqORLvkZh0o-83" value="" style="html=1;points=[[0,0,0,0,5],[0,1,0,0,-5],[1,0,0,0,5],[1,1,0,0,-5]];perimeter=orthogonalPerimeter;outlineConnect=0;targetShapes=umlLifeline;portConstraint=eastwest;newEdgeStyle={&quot;curved&quot;:0,&quot;rounded&quot;:0};" vertex="1" parent="J8siXgxXGdqORLvkZh0o-82">
          <mxGeometry x="45" y="60" width="10" height="180" as="geometry" />
        </mxCell>
        <mxCell id="J8siXgxXGdqORLvkZh0o-100" value="" style="html=1;points=[[0,0,0,0,5],[0,1,0,0,-5],[1,0,0,0,5],[1,1,0,0,-5]];perimeter=orthogonalPerimeter;outlineConnect=0;targetShapes=umlLifeline;portConstraint=eastwest;newEdgeStyle={&quot;curved&quot;:0,&quot;rounded&quot;:0};" vertex="1" parent="J8siXgxXGdqORLvkZh0o-82">
          <mxGeometry x="45" y="320" width="10" height="120" as="geometry" />
        </mxCell>
        <mxCell id="J8siXgxXGdqORLvkZh0o-93" value="" style="html=1;points=[[0,0,0,0,5],[0,1,0,0,-5],[1,0,0,0,5],[1,1,0,0,-5]];perimeter=orthogonalPerimeter;outlineConnect=0;targetShapes=umlLifeline;portConstraint=eastwest;newEdgeStyle={&quot;curved&quot;:0,&quot;rounded&quot;:0};" vertex="1" parent="J8siXgxXGdqORLvkZh0o-82">
          <mxGeometry x="50" y="130" width="10" height="40" as="geometry" />
        </mxCell>
        <mxCell id="J8siXgxXGdqORLvkZh0o-94" value="downOrUp()" style="html=1;align=left;spacingLeft=2;endArrow=block;rounded=0;edgeStyle=orthogonalEdgeStyle;curved=0;rounded=0;" edge="1" target="J8siXgxXGdqORLvkZh0o-93" parent="J8siXgxXGdqORLvkZh0o-82">
          <mxGeometry relative="1" as="geometry">
            <mxPoint x="55" y="120" as="sourcePoint" />
            <Array as="points">
              <mxPoint x="85" y="150" />
            </Array>
          </mxGeometry>
        </mxCell>
        <mxCell id="J8siXgxXGdqORLvkZh0o-85" value="callElevator()" style="html=1;verticalAlign=bottom;startArrow=oval;startFill=1;endArrow=block;startSize=8;curved=0;rounded=0;" edge="1" parent="1" source="J8siXgxXGdqORLvkZh0o-69" target="J8siXgxXGdqORLvkZh0o-82">
          <mxGeometry width="60" relative="1" as="geometry">
            <mxPoint x="244" y="390" as="sourcePoint" />
            <mxPoint x="304" y="390" as="targetPoint" />
          </mxGeometry>
        </mxCell>
        <mxCell id="J8siXgxXGdqORLvkZh0o-86" value="Ascensor" style="shape=umlLifeline;perimeter=lifelinePerimeter;whiteSpace=wrap;html=1;container=1;dropTarget=0;collapsible=0;recursiveResize=0;outlineConnect=0;portConstraint=eastwest;newEdgeStyle={&quot;curved&quot;:0,&quot;rounded&quot;:0};" vertex="1" parent="1">
          <mxGeometry x="444" y="320" width="100" height="530" as="geometry" />
        </mxCell>
        <mxCell id="J8siXgxXGdqORLvkZh0o-87" value="" style="html=1;points=[[0,0,0,0,5],[0,1,0,0,-5],[1,0,0,0,5],[1,1,0,0,-5]];perimeter=orthogonalPerimeter;outlineConnect=0;targetShapes=umlLifeline;portConstraint=eastwest;newEdgeStyle={&quot;curved&quot;:0,&quot;rounded&quot;:0};" vertex="1" parent="J8siXgxXGdqORLvkZh0o-86">
          <mxGeometry x="45" y="60" width="10" height="320" as="geometry" />
        </mxCell>
        <mxCell id="J8siXgxXGdqORLvkZh0o-90" value="callLevel()" style="html=1;verticalAlign=bottom;startArrow=oval;startFill=1;endArrow=block;startSize=8;curved=0;rounded=0;" edge="1" parent="1" source="J8siXgxXGdqORLvkZh0o-83">
          <mxGeometry x="0.0013" width="60" relative="1" as="geometry">
            <mxPoint x="354" y="420" as="sourcePoint" />
            <mxPoint x="494" y="420" as="targetPoint" />
            <mxPoint as="offset" />
          </mxGeometry>
        </mxCell>
        <mxCell id="J8siXgxXGdqORLvkZh0o-97" value="loop" style="shape=umlFrame;whiteSpace=wrap;html=1;pointerEvents=0;" vertex="1" parent="1">
          <mxGeometry x="404" y="520" width="200" height="100" as="geometry" />
        </mxCell>
        <mxCell id="J8siXgxXGdqORLvkZh0o-98" value="" style="html=1;points=[[0,0,0,0,5],[0,1,0,0,-5],[1,0,0,0,5],[1,1,0,0,-5]];perimeter=orthogonalPerimeter;outlineConnect=0;targetShapes=umlLifeline;portConstraint=eastwest;newEdgeStyle={&quot;curved&quot;:0,&quot;rounded&quot;:0};" vertex="1" parent="1">
          <mxGeometry x="494" y="570" width="10" height="40" as="geometry" />
        </mxCell>
        <mxCell id="J8siXgxXGdqORLvkZh0o-99" value="rightFloor?()" style="html=1;align=left;spacingLeft=2;endArrow=block;rounded=0;edgeStyle=orthogonalEdgeStyle;curved=0;rounded=0;" edge="1" target="J8siXgxXGdqORLvkZh0o-98" parent="1">
          <mxGeometry relative="1" as="geometry">
            <mxPoint x="499" y="550" as="sourcePoint" />
            <Array as="points">
              <mxPoint x="529" y="580" />
            </Array>
          </mxGeometry>
        </mxCell>
        <mxCell id="J8siXgxXGdqORLvkZh0o-102" value="arrive()" style="html=1;verticalAlign=bottom;startArrow=oval;startFill=1;endArrow=block;startSize=8;curved=0;rounded=0;" edge="1" parent="1">
          <mxGeometry width="60" relative="1" as="geometry">
            <mxPoint x="494" y="650" as="sourcePoint" />
            <mxPoint x="349.5" y="650" as="targetPoint" />
            <Array as="points">
              <mxPoint x="424.5" y="650" />
            </Array>
          </mxGeometry>
        </mxCell>
        <mxCell id="J8siXgxXGdqORLvkZh0o-104" value="turnOffLight()" style="html=1;verticalAlign=bottom;startArrow=oval;startFill=1;endArrow=block;startSize=8;curved=0;rounded=0;" edge="1" parent="1" source="J8siXgxXGdqORLvkZh0o-100">
          <mxGeometry width="60" relative="1" as="geometry">
            <mxPoint x="409" y="680" as="sourcePoint" />
            <mxPoint x="240" y="680" as="targetPoint" />
            <Array as="points">
              <mxPoint x="340" y="680" />
            </Array>
          </mxGeometry>
        </mxCell>
        <mxCell id="J8siXgxXGdqORLvkZh0o-105" value="Puerta ascensor" style="shape=umlLifeline;perimeter=lifelinePerimeter;whiteSpace=wrap;html=1;container=1;dropTarget=0;collapsible=0;recursiveResize=0;outlineConnect=0;portConstraint=eastwest;newEdgeStyle={&quot;curved&quot;:0,&quot;rounded&quot;:0};" vertex="1" parent="1">
          <mxGeometry x="614" y="320" width="100" height="530" as="geometry" />
        </mxCell>
        <mxCell id="J8siXgxXGdqORLvkZh0o-107" value="" style="html=1;points=[[0,0,0,0,5],[0,1,0,0,-5],[1,0,0,0,5],[1,1,0,0,-5]];perimeter=orthogonalPerimeter;outlineConnect=0;targetShapes=umlLifeline;portConstraint=eastwest;newEdgeStyle={&quot;curved&quot;:0,&quot;rounded&quot;:0};" vertex="1" parent="J8siXgxXGdqORLvkZh0o-105">
          <mxGeometry x="45" y="370" width="10" height="60" as="geometry" />
        </mxCell>
        <mxCell id="J8siXgxXGdqORLvkZh0o-108" value="openDoor()" style="html=1;verticalAlign=bottom;startArrow=oval;startFill=1;endArrow=block;startSize=8;curved=0;rounded=0;" edge="1" parent="1" source="J8siXgxXGdqORLvkZh0o-82" target="J8siXgxXGdqORLvkZh0o-105">
          <mxGeometry width="60" relative="1" as="geometry">
            <mxPoint x="499" y="685" as="sourcePoint" />
            <mxPoint x="424" y="560" as="targetPoint" />
            <Array as="points">
              <mxPoint x="604" y="720" />
            </Array>
          </mxGeometry>
        </mxCell>
        <mxCell id="J8siXgxXGdqORLvkZh0o-110" value="stop()" style="html=1;verticalAlign=bottom;startArrow=oval;startFill=1;endArrow=block;startSize=8;curved=0;rounded=0;" edge="1" parent="1">
          <mxGeometry x="0.0013" width="60" relative="1" as="geometry">
            <mxPoint x="354" y="690" as="sourcePoint" />
            <mxPoint x="494" y="690" as="targetPoint" />
            <mxPoint as="offset" />
          </mxGeometry>
        </mxCell>
        <mxCell id="J8siXgxXGdqORLvkZh0o-111" value="start()" style="html=1;verticalAlign=bottom;startArrow=oval;startFill=1;endArrow=block;startSize=8;curved=0;rounded=0;" edge="1" parent="1">
          <mxGeometry x="0.0013" width="60" relative="1" as="geometry">
            <mxPoint x="349" y="510" as="sourcePoint" />
            <mxPoint x="494" y="510" as="targetPoint" />
            <mxPoint as="offset" />
          </mxGeometry>
        </mxCell>
      </root>
    </mxGraphModel>
  </diagram>
</mxfile>
